<svg width="120" height="57" viewBox="0 0 120 57" fill="none" xmlns="http://www.w3.org/2000/svg">
    <path d="M66.181 24.513v-2.584a.64.64 0 0 1 .653-.656h11.488c.37 0 .663.27.663.654v2.22c-.004.366-.315.853-.865 1.625l-5.956 8.569c2.21-.052 4.549.28 6.557 1.42.453.258.575.633.61 1.007v2.763c0 .382-.414.823-.844.593-3.54-1.873-8.233-2.076-12.142.023-.401.215-.818-.217-.818-.599V36.92c0-.42.007-1.138.427-1.777l6.894-9.977h-6.002a.645.645 0 0 1-.665-.653zM24.273 40.668h-3.496a.657.657 0 0 1-.625-.595l.003-18.1c0-.36.3-.652.674-.652l3.255-.001a.664.664 0 0 1 .636.609v2.364h.064c.846-2.286 2.447-3.354 4.599-3.354 2.188 0 3.554 1.068 4.536 3.354.849-2.286 2.772-3.354 4.83-3.354 1.469 0 3.066.61 4.046 1.982 1.111 1.52.881 3.732.881 5.67l-.001 11.425a.664.664 0 0 1-.676.652h-3.49a.656.656 0 0 1-.627-.649l-.002-9.598c0-.76.064-2.663-.1-3.39-.262-1.218-1.045-1.56-2.056-1.56-.845 0-1.728.57-2.088 1.485-.357.915-.326 2.435-.326 3.465v9.594a.662.662 0 0 1-.674.653h-3.491a.657.657 0 0 1-.629-.649l-.004-9.598c0-2.02.328-4.989-2.15-4.989-2.516 0-2.417 2.897-2.417 4.989l-.001 9.594a.658.658 0 0 1-.671.653zM88.879 20.94c5.183 0 7.995 4.494 7.995 10.206 0 5.52-3.106 9.905-7.995 9.905-5.092 0-7.868-4.502-7.868-10.097 0-5.633 2.807-10.014 7.868-10.014zm.033 3.693c-2.581 0-2.745 3.546-2.745 5.748 0 2.21-.033 6.93 2.712 6.93 2.702 0 2.83-3.807 2.83-6.124 0-1.525-.063-3.352-.521-4.8-.39-1.26-1.174-1.754-2.276-1.754zm14.687 16.036h-3.485a.655.655 0 0 1-.628-.648l-.007-18.107a.666.666 0 0 1 .673-.592l3.246-.001a.664.664 0 0 1 .621.508v2.767h.066c.978-2.474 2.343-3.656 4.758-3.656 1.569 0 3.105.572 4.084 2.135.908 1.443.908 3.882.908 5.633v11.39a.664.664 0 0 1-.663.571h-3.51a.668.668 0 0 1-.623-.572V30.27c0-1.977.231-4.876-2.188-4.876-.849 0-1.624.573-2.018 1.45-.489 1.104-.553 2.205-.553 3.426v9.746a.673.673 0 0 1-.681.652zm-86.176-3.32c-.636-.894-1.316-1.615-1.316-3.267v-5.494c0-2.325.164-4.461-1.538-6.064-1.343-1.3-3.565-1.758-5.267-1.758-3.327 0-7.037 1.253-7.817 5.398-.083.444.236.674.523.74l3.388.37c.315-.017.546-.334.607-.65.291-1.43 1.477-2.119 2.81-2.119.717 0 1.535.269 1.962.918.49.723.425 1.718.425 2.558v.453c-2.029.23-4.678.383-6.572 1.223C2.437 30.613.9 32.556.9 35.421c0 3.666 2.288 5.498 5.228 5.498 2.49 0 3.845-.592 5.766-2.564.636.927.843 1.374 2.003 2.352a.72.72 0 0 0 .827-.084l.007.009c.699-.628 1.97-1.74 2.68-2.343.283-.237.233-.622.01-.942zm-6.878-1.585c-.557.988-1.438 1.6-2.418 1.6C6.785 37.362 6 36.33 6 34.807c0-3.001 2.672-3.546 5.2-3.546v.762c0 1.37.032 2.517-.655 3.74zm52.702 1.584c-.64-.893-1.32-1.614-1.32-3.266v-5.494c0-2.325.164-4.461-1.539-6.064-1.336-1.3-3.562-1.758-5.26-1.758-3.327 0-7.039 1.253-7.818 5.398-.083.444.236.674.522.74l3.386.37c.32-.017.55-.334.61-.65.292-1.43 1.474-2.119 2.809-2.119.718 0 1.538.269 1.96.918.49.723.424 1.718.424 2.558v.453c-2.026.23-4.674.383-6.569 1.223-2.19.957-3.728 2.9-3.728 5.765 0 3.666 2.286 5.498 5.23 5.498 2.484 0 3.846-.592 5.765-2.564.634.927.843 1.374 2.003 2.352.263.139.592.128.823-.084l.008.009c.7-.628 1.97-1.74 2.684-2.343.285-.237.236-.622.01-.942zm-6.88-1.584c-.552.988-1.437 1.6-2.418 1.6-1.342 0-2.123-1.032-2.123-2.555 0-3.001 2.669-3.546 5.196-3.546v.762c0 1.37.034 2.517-.655 3.74zM70.849 47.702c-6.669 4.8-15.957 7.393-24.152 7.393-11.479 0-21.71-4.19-29.593-11.37-.73-.664-.259-1.443.648-.918 8.576 5.002 18.853 7.928 29.636 7.928 7.273 0 14.997-1.46 22.337-4.61 1.605-.69 2.27.75 1.124 1.577z" fill="#151515"/>
    <path d="M73.698 44.462c-.843-1.087-5.552-.514-7.668-.262-.637.079-.74-.486-.16-.894 3.756-2.649 9.913-1.878 10.625-1.004.72.9-.19 7.13-3.709 10.105-.543.46-1.052.21-.813-.392.79-1.999 2.564-6.47 1.725-7.553zM117.811 37.713c.394 0 .729.14 1.005.419.275.277.415.614.415 1.008 0 .396-.139.733-.415 1.012-.276.28-.61.42-1.005.42-.394 0-.729-.14-1.004-.42a1.392 1.392 0 0 1-.412-1.012c0-.395.138-.731.415-1.008.276-.28.611-.42 1.001-.42zm1.642 1.423c0-.456-.161-.845-.481-1.166a1.583 1.583 0 0 0-1.163-.482c-.451 0-.836.16-1.156.482-.32.323-.481.711-.481 1.166 0 .46.159.85.477 1.173.318.325.706.488 1.16.488.454 0 .842-.163 1.163-.488.32-.323.481-.714.481-1.173zm-1.208-.357a.276.276 0 0 1-.187.279.884.884 0 0 1-.307.04h-.291v-.648h.274c.18 0 .309.02.391.066.08.045.12.131.12.263zm-1.095-.554v1.81h.31v-.713h.254c.171 0 .291.02.358.058.116.069.173.205.173.415v.144l.007.058.004.02c.003.005.004.012.005.018h.295l-.012-.023a.276.276 0 0 1-.016-.093c-.004-.048-.004-.093-.004-.135v-.132a.515.515 0 0 0-.098-.282.433.433 0 0 0-.308-.176.674.674 0 0 0 .26-.088c.119-.077.178-.196.178-.357 0-.227-.094-.38-.281-.459-.105-.043-.269-.064-.493-.064h-.632z" fill="#151515"/>
</svg>
