<svg width="189" height="57" viewBox="0 0 189 57" fill="none" xmlns="http://www.w3.org/2000/svg">
    <path d="M183.677 29.79c-.157-.613-.392-1.303-.575-1.649 0 0 .104-.107.314.027.208.133 1.541 1.063 1.541 1.063.68 1.011 1.098 5.16 1.124 6.65-.627-.294-1.516-.798-2.092-1.358l-.312-4.734zm-4.027-3.858c-1.099-1.223-2.013-2.367-2.903-3.722.576-1.118.995-4.07.733-5.214-.105-.346-1.047-1.623-1.204-1.808-.235-.24-.993-1.118-1.359-1.118-.078 0-.157.028-.184.054l.106.984a68.217 68.217 0 0 0-3.557 2.473c0 .346.026.877.053 1.065.183.158.392.292.627.373.471-.081 1.936-.454 2.327-.4l-1.437 2.207-1.648 1.197-2.065-.664c-.131-.028-.262 0-.34.106l-1.516 1.677c-.079.078-.131.158-.131.344l-.053 1.89s-.026.291-.026.61c0 1.357.601 1.995.601 1.995l.995-1.464a4.64 4.64 0 0 1-.421-1.062l.027-1.623.968-.72 2.563 1.837s.706 1.33 1.386 2.128c.444.559 2.665 2.075 3.738 2.713.105.586.34 1.542.523 2.047l3.139 3.272-1.857 2.367c-.653.426-1.282 1.197-1.229 1.916h2.144l.236-1.25 2.562-2.9c.131-.159.131-.24.053-.479l-.733-2.5c.367-.426 1.15-1.488 1.15-2.766-.001-2.314-2.484-2.9-3.268-3.565zm-11.558-4.76c-.078.027-1.986.558-1.986.558s-.89.346-1.282.612c-.392.267-.837.718-.863.957l1.699.4c.262-.294.55-.612.811-.826l.392-.185 1.412-1.463s-.053-.08-.183-.054zm8.027 14.948 2.406-2.34.994 1.01-2.589 2.234c-.209.265-.366.692-.497.957h-1.908c.105-.718 1.098-1.622 1.594-1.861zm12.787 4.946h-25.547v-.851h25.547v.851zm-71.593-12.182c0-1.594-.498-2.846-1.856-2.846-1.361 0-1.91 1.252-1.91 2.846v10.507h1.597v1.676h-8.735V39.39h1.621V24.922h-1.621V23.3h6.877v2.713h.078c.653-1.489 2.171-3.057 4.603-3.057 2.563 0 4.13 1.595 4.628 3.695.183.826.236 2.182.236 2.873v9.868h2.091v1.676h-7.609V28.884zm-35.483 0c0-1.594-.496-2.846-1.855-2.846-1.36 0-1.91 1.252-1.91 2.846v10.507h1.596v1.676h-8.734V39.39h1.621V24.922h-1.621V23.3h6.877v2.713h.078c.654-1.489 2.17-3.057 4.602-3.057 2.563 0 4.132 1.595 4.628 3.695.184.826.236 2.182.236 2.873v9.868h2.092v1.676h-7.61V28.884zm50.492-3.962v13.139c0 .905.575 1.118 1.123 1.118.524 0 1.022-.186 1.022-.186v1.621s-1.047.666-3.374.666c-2.719 0-4.315-1.358-4.315-4.23V24.923h-1.856v-1.198c2.065-1.675 4.472-3.592 6.38-5.213h1.02V23.3h2.667v1.624h-2.667zM23.337 14.07s4.211 4.282 6.145 6.49v1.676c-1.803-1.942-5.543-3.566-9.02-3.566-7.871 0-12.813 6.039-12.813 13.513 0 7.446 4.68 13.485 12.812 13.485 4.053 0 7.296-1.942 9.1-3.936v1.595c-2.459 3.432-6.955 5.666-12.55 5.666-10.017 0-16.919-7.394-16.919-16.81C.092 22.768 7.754 15.4 17.01 15.4c2.354 0 4.472.4 6.327 1.065V14.07zm80.432 22.263c-.786.93-2.014 1.648-3.845 1.648-1.596 0-4.053-.905-4.157-5.026h9.335c.026-.32.051-.96.051-1.278 0-5-2.012-8.722-7.268-8.722-5.282 0-7.976 4.122-7.976 9.255 0 5.133 2.694 9.175 7.976 9.175 3.4 0 5.543-1.621 6.799-4.176l-.915-.876zm-8.001-5.108c0-4.68.366-6.436 1.933-6.436 1.597 0 1.91 1.702 1.961 6.436h-3.894zm-76.98.904c0-5.425.496-7.819 2.3-7.819 1.804 0 2.302 2.394 2.302 7.82s-.498 7.818-2.302 7.818-2.3-2.392-2.3-7.819zm-6.485.054c0 5.373 3.241 9.735 8.785 9.735 5.543 0 8.786-4.362 8.786-9.735 0-5.373-3.243-9.734-8.785-9.734-5.545 0-8.786 4.36-8.786 9.734zm29.939-3.299c0-1.594-.496-2.846-1.856-2.846-1.359 0-1.91 1.252-1.91 2.846v10.507h1.596v1.676h-8.734V39.39h1.622V24.923h-1.622V23.3h6.878v2.712h.078c.653-1.488 2.17-3.057 4.602-3.057 2.562 0 4.132 1.595 4.627 3.696.183.825.236 2.181.236 2.872v9.869h2.093v1.675h-7.61V28.884zm19.533-10.293c0 1.57 1.386 2.608 3.374 2.608 1.986 0 3.372-1.039 3.372-2.608 0-1.567-1.386-2.606-3.372-2.606-1.988 0-3.374 1.039-3.374 2.606zm-4.524 6.332V38.06c0 .905.575 1.118 1.125 1.118.522 0 1.019-.186 1.019-.186v1.621s-1.045.666-3.372.666c-2.719 0-4.315-1.358-4.315-4.23V24.923h-1.856v-1.198c2.066-1.675 4.471-3.592 6.378-5.213h1.021V23.3h2.144v1.624H57.25zM159.255 39.39h2.144v1.676h-7.662V18.352h-1.908V16.73h7.426v22.66zm-14.749-7.128c-.157-.16-.497-.373-1.203-.373-1.646 0-2.012 1.65-2.012 3.352 0 1.676.496 3.032 1.908 3.032.68 0 1.099-.293 1.307-.532v-5.48zm.237 6.676h-.08c-1.019 1.462-2.378 2.447-4.47 2.447-2.851 0-4.629-2.474-4.629-5.426 0-3.564 2.484-5.825 6.458-5.825 1.622 0 2.484.374 2.484.374v-1.12c0-2.153-1.307-3.297-3.215-3.297-2.643 0-4 2.076-4 2.076l-.969-1.197c1.752-2.768 4.444-4.016 6.955-4.016 4.238 0 6.746 2.552 6.746 6.435V39.39h1.778v1.676h-7.058v-2.128zm-83.988 2.127v-1.675h1.596V24.922h-1.596V23.3h7.113v16.092h1.621v1.675" fill="#151515"/>
</svg>
