<svg width="86" height="57" viewBox="0 0 86 57" fill="none" xmlns="http://www.w3.org/2000/svg">
    <path fill-rule="evenodd" clip-rule="evenodd" d="M45.694 27.414H34.252c-.073 0-.073 0-.147-.072-.222-.432 0-.865.147-1.297.517-1.802 1.477-3.243 3.175-4.108 3.248-1.658 6.939-.072 8.194 3.387.221.649.369 1.225.443 1.874-.074.216-.222.216-.37.216zM42.078 17.18c-4.207-.576-7.677.793-10.482 3.748-2.879 3.099-3.617 6.775-2.879 10.739.59 3.17 2.288 5.693 5.167 7.423 2.51 1.513 5.241 2.018 8.12 1.802 2.437-.216 4.651-1.01 6.57-2.523.813-.648 1.034-1.657.591-2.594-.664-1.225-2.14-1.586-3.396-.721-1.476 1.009-3.026 1.514-4.798 1.586-3.543.072-6.127-1.802-6.939-5.19-.074-.504-.074-.576.517-.576h15.28c1.034 0 1.698-.577 1.698-1.586 0-1.08-.147-2.234-.369-3.315-1.033-4.613-4.134-8.144-9.08-8.793zM13.952 9.19a14.7 14.7 0 0 0-4.355 0c-2.658.36-4.651 2.162-5.168 4.684-.295 1.298-.295 2.595-.295 3.892 0 .289-.074.433-.443.433H2.215C.96 18.27 0 19.208 0 20.433s.96 2.09 2.215 2.162h1.18c.739 0 .739-.144.739.72v14.848c0 .793.221 1.441.738 2.018a2.654 2.654 0 0 0 2.953.648c1.107-.432 1.772-1.297 1.772-2.522V23.028c0-.36.073-.505.516-.505h3.544c.96 0 1.771-.576 2.067-1.441.516-1.514-.517-2.883-2.215-2.955H9.966c-.296 0-.443-.072-.443-.36v-1.442c.147-1.658.96-2.667 2.436-2.81.517-.073 1.033 0 1.624 0 1.255 0 2.214-.866 2.288-2.091.074-1.081-.812-2.09-1.92-2.234zM76.797 19.005c-.442-1.009-1.402-1.585-2.583-1.657-.812-.072-1.55.36-2.141.937-3.543 3.46-7.16 6.846-10.704 10.306-2.657 2.595-5.389 5.19-8.046 7.784-1.403 1.37-.886 3.603.96 4.324 1.328.505 2.362.072 3.321-.865 2.732-2.667 5.537-5.333 8.268-8 3.47-3.315 6.865-6.63 10.335-9.946.738-.72 1.033-1.874.59-2.883zM24.213 11.991v-.505c-.074-.792-.517-1.369-1.181-1.801-1.55-1.01-3.839-.144-4.06 1.513-.074.216-.074.433-.074.649v26.09c0 .577.074 1.081.295 1.586.517 1.008 1.698 1.585 2.953 1.297 1.107-.216 1.993-1.153 2.14-2.234-.073-.145-.073-.36-.073-.505v-26.09zM72.55 32.824c-.812-.721-1.181-1.586-1.181-2.739v-.216c0-.216.148-.505-.148-.649-.221-.072-.369.216-.516.36a35.242 35.242 0 0 0-2.363 2.307c-1.18 1.225-1.18 3.315 0 4.468 1.33 1.37 2.658 2.595 4.06 3.892.813.72 1.772.865 2.806.505 1.993-.721 2.436-3.027.96-4.469a163.49 163.49 0 0 1-3.618-3.46zM56.989 25.54c.886.865 1.255 1.874 1.033 3.027 0 .145-.147.36.074.505.222.144.37 0 .517-.144l2.288-2.235c1.403-1.369 1.477-3.459.074-4.9-1.255-1.226-2.51-2.379-3.691-3.604-.517-.505-1.181-.793-2.067-.793-.221 0-.517 0-.812.144-1.993.649-2.584 2.955-1.107 4.469 1.255 1.153 2.51 2.306 3.69 3.531z" fill="#151515"/>
    <path d="M83.269 35.532c.442 0 .96.144 1.328.36.443.216.812.577 1.034 1.01.221.431.369.864.369 1.368 0 .505-.148.937-.37 1.37-.22.432-.59.793-1.033 1.009-.442.216-.885.36-1.402.36-.517 0-.96-.144-1.403-.36a2.306 2.306 0 0 1-1.033-1.01c-.222-.432-.37-.864-.37-1.369 0-.504.148-.937.37-1.369.221-.432.59-.793 1.033-1.009.517-.216.96-.36 1.477-.36zm0 .576c-.37 0-.739.072-1.108.289a2.12 2.12 0 0 0-.812.792c-.221.36-.295.721-.295 1.081s.074.721.295 1.082c.222.36.443.576.812.792.37.217.739.289 1.108.289.369 0 .738-.072 1.107-.289.369-.216.59-.432.812-.792.221-.36.295-.721.295-1.081s-.074-.721-.295-1.082c-.222-.36-.443-.648-.812-.792a2.123 2.123 0 0 0-1.107-.289zm-1.255 3.604v-2.883H83.564c.221 0 .369.072.443.144.074.072.221.144.295.288.074.145.074.289.074.433 0 .216-.074.36-.222.504-.147.145-.369.217-.59.289.074 0 .148.072.221.072l.222.216s.074.144.221.36l.37.577h-.739l-.221-.433c-.148-.288-.296-.504-.443-.576-.074-.072-.222-.144-.443-.144h-.148v1.153h-.59zm.59-1.658h.222c.369 0 .59 0 .664-.072.074 0 .148-.072.222-.144.073-.072.073-.144.073-.216 0-.072 0-.144-.073-.216-.074-.072-.148-.072-.222-.145-.074 0-.295-.072-.664-.072h-.222v.865z" fill="#151515"/>
</svg>
