<svg width="217" height="57" viewBox="0 0 217 57" fill="none" xmlns="http://www.w3.org/2000/svg">
    <g clip-path="url(#sb3rtyz17a)" fill="#151515">
        <path d="M34.1 19.012c-1.029.226-2.099.481-3.21.764.795-2.503 1.55-4.687 2.21-6.496 1.34-3.684 2.26-5.787 2.26-5.787a5.393 5.393 0 0 0-4.553.041c-2.561 1.548-4.198 7.6-4.198 7.6-.756 2.238-1.44 4.4-2.06 6.49a99.307 99.307 0 0 0-6.478 2.386c-.88.358-1.769.734-2.664 1.128a121.147 121.147 0 0 1 3.329-10.106c1.066-2.798 1.805-4.368 1.805-4.368-.543-.687-2.82-.428-2.82-.428-2.26.192-3.512 3.005-3.512 3.005a98.2 98.2 0 0 0-4.954 14.877c-.775.407-1.552.834-2.331 1.28a29.644 29.644 0 0 0-6.116 4.194S-.568 34.999.272 36.44c.062.112.133.218.213.32 0 0 3.174-1.778 5.602-3.067a55.61 55.61 0 0 1 2.16-1.103c-.06.3-.119.592-.174.88a105.482 105.482 0 0 0-.597 3.344c-.507 3.156-.646 5.061-.646 5.061-.549 4.288.426 5.538.914 5.89a.798.798 0 0 0 .255.13c2.018.96 3.265.055 3.265.055a116.554 116.554 0 0 1 2.928-18.145c.737-.32 1.534-.64 2.384-.994 1.96-.79 4.197-1.634 6.658-2.456a161.356 161.356 0 0 0-.846 3.329 162.605 162.605 0 0 0-1.001 4.329c-1.56 7.159-2.099 11.788-2.099 11.788-1.137 5.797 0 6.922 0 6.922.385.428.862.764 1.395.985a4.396 4.396 0 0 0 3.23-.096 158.342 158.342 0 0 1 5.557-29.152 111.54 111.54 0 0 1 2.97-.755 88.77 88.77 0 0 1 6.707-1.34 67.482 67.482 0 0 1 9.656-.85v-4.393s-5.72-.077-14.703 1.89zM73.147 14.692l-2.071 9.66-8.165 1.688 2.375-11.343h-4.784L57.874 27.95c-1.907.811-4.484 1.993-3.848 4.334l3.273-1.13s-1.323 4.496-1.323 6.883c.14 1.344.468 3.092 3.74 2.837.793-3.709 1.572-7.417 2.34-11.126l8.416-1.733-1.084 4.635c-.5 2.072-1.216 4.882-.894 6.356.393 1.298 1.155 1.97 3.774 1.877l5.5-26.177h-4.625l.004-.014zm21.044 19.191a19.723 19.723 0 0 0-.819 4.58c.272 2.522 2.306 2.684 3.741 2.643l4.677-22.488h-4.41l-3.19 15.265zm78.889-19.182-4.078 19.182a19.753 19.753 0 0 0-.818 4.58c.276 2.522 2.432 2.684 3.881 2.643l5.612-26.423h-4.606l.009.018zm-70.145 19.182a19.754 19.754 0 0 0-.818 4.58c.271 2.522 2.305 2.684 3.741 2.643l3.531-16.828h-4.452l-2.002 9.605zm98.161-7.88a12.132 12.132 0 0 0-.29-1.826h-3.484s-.089 1.548-.304 2.837c-.336 2.748-1.66 8.91-2.679 13.614h4.307c.855-3.022 1.837-9.442 3.198-11.84.935-1.468 4.059-2.535 4.868-.082.407.885-1 4.867-1.403 7.625-.341 2.485-.65 4.636 3.592 4.529l1.314-6.059c.692-3.245 1.679-6.211.935-7.987-1.595-4.028-7.473-3.555-10.059-.797l.005-.014zm-18.238 0a11.636 11.636 0 0 0-.29-1.826h-3.483s-.089 1.548-.304 2.837c-.337 2.748-1.66 8.91-2.68 13.614h4.307c.856-3.022 1.838-9.442 3.194-11.84.935-1.468 4.059-2.535 4.873-.082.406.885-1.001 4.867-1.38 7.625-.346 2.485-.65 4.636 3.592 4.529l1.314-6.059c.692-3.245 1.678-6.211.958-7.987-1.66-4.028-7.538-3.555-10.129-.797l.028-.014zm-26.187 9.15c-1.01 2.17-2.366 2.661-4.241 2.374-1.871-.464-.852-3.982-.852-3.982.468-2.17 1.871-9.183 1.871-9.183h-4.382l-1.842 8.344c-.935 4.028-.702 5.493.467 6.661-2.394.552-3.666 1.572-3.829 3.579-.258 3.129 2.978 5.03 6.308 4.988 7.992-.102 10.082-5.187 11.116-12.187l2.338-11.38h-4.504s-1.725 9.646-2.478 10.8l.028-.013zm-6.449 10.115c-1.131-.074-2.618-.732-2.52-2.137.201-2.92 5.476-1.488 8.071-3.62.019 1.975-1.585 6.022-5.551 5.757zm-25.425-29.797-1.786 8.58c-7.688-.737-12.841 4.413-12.935 11.25-.079 5.795 6.351 7.385 10.438 3.936.467 1.257 1.622 1.785 3.498 1.623l5.419-25.39h-4.634zM121 33.22c-.547 3.346-2.24 5.289-4.746 4.496-3.84-1.215-.314-12.39 6.079-10.662L121 33.221zm19.762-9.095c-7.047-.807-12.743 4.204-12.916 11.18-.145 5.795 6.458 7.487 10.288 3.811.468 1.256 1.749 1.91 3.629 1.752l3.072-15.13c-.94-1.298-4.073-1.609-4.073-1.609v-.004zm-1.992 9.095c-.547 3.346-2.245 5.372-4.746 4.575-1.777-.561-1.871-3.245-.936-5.846 1.081-2.999 3.592-5.826 7.015-4.895l-1.333 6.166zm-54.09-9.137a9.368 9.368 0 0 0-3.754 1.344 9.276 9.276 0 0 0-2.84 2.777c-1.53 2.318-2.573 6.1-1.66 9.086.813 2.665 3.628 3.889 6.149 3.903 3.413 0 6.865-2.318 8.417-4.83.725-1.173 2.221-4.817 1.637-7.645-.716-3.44-3.62-5.2-7.95-4.635zm2.66 9.735c-.636 1.854-1.65 3.342-2.806 3.912-1.09.491-3.105.52-3.708-1.419a9.89 9.89 0 0 1 .467-5.038c.837-2.133 2.4-4.288 4.27-4.256 1.094 0 2.24.654 2.403 1.766.281 1.057.183 3.037-.63 5.025l.004.01zM110.146 17.9c-.893-.88-2.502-.705-3.596.39-1.094 1.093-1.262 2.688-.374 3.564.889.876 2.502.705 3.596-.385 1.094-1.089 1.263-2.702.374-3.578v.009zm104.937 6.953c-.507 0-.994.2-1.353.556a1.89 1.89 0 0 0-.56 1.34c0 .503.202.985.56 1.34a1.928 1.928 0 0 0 2.709-.001 1.894 1.894 0 0 0 0-2.687 1.928 1.928 0 0 0-1.356-.557v.01zm0 3.403a1.53 1.53 0 0 1-1.023-.47 1.504 1.504 0 0 1 0-2.078 1.53 1.53 0 0 1 1.023-.47 1.484 1.484 0 0 1 1.054.449 1.46 1.46 0 0 1 .41 1.062 1.44 1.44 0 0 1-.893 1.381 1.464 1.464 0 0 1-.571.112v.014zm.43-1.451a.467.467 0 0 0 .393-.464.518.518 0 0 0-.187-.403c-.2-.119-.433-.17-.664-.148-.247-.001-.493.022-.734.07v1.877h.435v-.751h.21a.341.341 0 0 1 .263.065.331.331 0 0 1 .13.236c.024.162.075.318.149.464h.468a1.241 1.241 0 0 1-.14-.464.546.546 0 0 0-.323-.496v.014zm-.524-.14h-.21v-.541c.081-.01.162-.01.243 0 .281 0 .407.115.407.287 0 .171-.206.24-.44.24v.015z"/>
    </g>
    <defs>
        <clipPath id="sb3rtyz17a">
            <path fill="#fff" transform="translate(0 .01)" d="M0 0h217v56H0z"/>
        </clipPath>
    </defs>
</svg>
