<svg width="48" height="48" viewBox="0 0 48 48" fill="none" xmlns="http://www.w3.org/2000/svg">
    <g clip-path="url(#is15muru4a)" stroke="#265CFF" stroke-width="1.5" stroke-linecap="round" stroke-linejoin="round">
        <path d="m34.784 34.79 11.712 11.712M17.996 21.002a3 3 0 1 0 5.999 0 3 3 0 0 0-5.999 0z"/>
        <path d="M18.448 9.4a2.66 2.66 0 0 1 5.096 0l.884 2.906a1.988 1.988 0 0 0 2.348 1.362l2.944-.682a2.676 2.676 0 0 1 2.548 4.436L30.2 19.64a2 2 0 0 0 0 2.724l2.06 2.222a2.675 2.675 0 0 1-2.548 4.436l-2.944-.682a1.988 1.988 0 0 0-2.348 1.362l-.876 2.898a2.66 2.66 0 0 1-5.096 0l-.886-2.906a1.986 1.986 0 0 0-2.346-1.362l-2.946.682a2.676 2.676 0 0 1-2.548-4.436l2.062-2.222a2 2 0 0 0 0-2.724l-2.062-2.214a2.676 2.676 0 0 1 2.548-4.436l2.946.682a1.986 1.986 0 0 0 2.346-1.362l.886-2.902z"/>
        <path d="M1.496 21.002a19.5 19.5 0 1 0 38.999 0 19.5 19.5 0 0 0-38.999 0z"/>
    </g>
    <defs>
        <clipPath id="is15muru4a">
            <path fill="#fff" d="M0 0h48v48H0z"/>
        </clipPath>
    </defs>
</svg>
