<svg width="48" height="48" viewBox="0 0 48 48" fill="none" xmlns="http://www.w3.org/2000/svg">
    <path d="M43.368 18.78a3.652 3.652 0 0 1-1.078 1.752l-1.944 1.756a3.655 3.655 0 0 0 0 5.428l1.944 1.756a3.655 3.655 0 0 1-2.638 6.366l-2.616-.134a3.655 3.655 0 0 0-3.836 3.838l.134 2.616a3.656 3.656 0 0 1-6.368 2.642l-1.756-1.944a3.656 3.656 0 0 0-5.428 0L18.026 44.8a3.656 3.656 0 0 1-6.366-2.642l.14-2.616a3.657 3.657 0 0 0-3.838-3.838l-2.616.134a3.656 3.656 0 0 1-2.638-6.366l1.944-1.756a3.656 3.656 0 0 0 0-5.428l-1.944-1.756a3.656 3.656 0 0 1 2.632-6.366l2.616.134a3.657 3.657 0 0 0 3.844-3.838l-.14-2.616A3.656 3.656 0 0 1 18.026 5.2l1.756 1.944a3.651 3.651 0 0 0 5.428 0L26.966 5.2a3.658 3.658 0 0 1 4.114-.92" stroke="#fff" stroke-width="1.5" stroke-linecap="round" stroke-linejoin="round"/>
    <path d="m15.2 21.282 5.026 6.702a3 3 0 0 0 4.694.132L46.496 2.502" stroke="#fff" stroke-width="1.5" stroke-linecap="round" stroke-linejoin="round"/>
</svg>
