<svg width="32" height="33" viewBox="0 0 32 33" fill="none" xmlns="http://www.w3.org/2000/svg">
    <path d="M16.005 21.697h-5.687a.812.812 0 0 0-.813.812v4.875a.812.812 0 0 0 .813.813h5.687v-6.5zM21.693 21.697h-5.688v6.5h5.688a.812.812 0 0 0 .812-.813V22.51a.812.812 0 0 0-.812-.812z" stroke="#265CFF" stroke-width="1.5" stroke-linecap="round" stroke-linejoin="round"/>
    <path d="M18.443 15.197h-4.875a.813.813 0 0 0-.813.812v5.688h6.5v-5.688a.812.812 0 0 0-.812-.812z" stroke="#265CFF" stroke-width="1.5" stroke-linecap="round" stroke-linejoin="round"/>
    <path d="M3.818 10.322v16.791A1.083 1.083 0 0 0 4.9 28.197H27.11a1.084 1.084 0 0 0 1.083-1.084V10.322M3.818 10.322c0-3.59 5.457-6.5 12.187-6.5 6.731 0 12.188 2.91 12.188 6.5" stroke="#265CFF" stroke-width="1.5" stroke-linecap="round" stroke-linejoin="round"/>
</svg>
