<svg width="32" height="33" viewBox="0 0 32 33" fill="none" xmlns="http://www.w3.org/2000/svg">
    <path d="M23 17.954a2.333 2.333 0 0 1-2.333 2.333h-9.334a2.333 2.333 0 1 1 0-4.667h9.334A2.333 2.333 0 0 1 23 17.954zM16 20.287v8.75M8.37 29.037a7.77 7.77 0 0 1 7.63-5.25 7.782 7.782 0 0 1 7.63 5.25" stroke="#265CFF" stroke-width="1.5" stroke-linecap="round" stroke-linejoin="round"/>
    <path d="M5.5 12.704v4.083a3.5 3.5 0 0 0 3.5 3.5h1.75M3.75 12.704h3.5M26.5 12.704v4.083a3.5 3.5 0 0 1-3.5 3.5h-1.75M28.25 12.704h-3.5M21.25 15.69V8.037a5.25 5.25 0 1 0-10.5 0v7.653" stroke="#265CFF" stroke-width="1.5" stroke-linecap="round" stroke-linejoin="round"/>
</svg>
