<svg width="32" height="33" viewBox="0 0 32 33" fill="none" xmlns="http://www.w3.org/2000/svg">
    <path d="M5.5 15.134V12.51a1.75 1.75 0 0 1 1.75-1.75h7A1.75 1.75 0 0 1 16 12.51v2.625M16 15.134V12.51a1.75 1.75 0 0 1 1.75-1.75h7a1.75 1.75 0 0 1 1.75 1.75v2.625" stroke="#265CFF" stroke-width="1.5" stroke-linecap="round" stroke-linejoin="round"/>
    <path d="M5.208 15.134h21.584a2.333 2.333 0 0 1 2.333 2.334v5.541H2.875v-5.541a2.333 2.333 0 0 1 2.333-2.334zM2.875 23.01v3.5M29.125 23.01v3.5" stroke="#265CFF" stroke-width="1.5" stroke-linecap="round" stroke-linejoin="round"/>
    <path d="M26.5 15.134V7.26a1.75 1.75 0 0 0-1.75-1.75H7.25A1.75 1.75 0 0 0 5.5 7.26v7.875" stroke="#265CFF" stroke-width="1.5" stroke-linecap="round" stroke-linejoin="round"/>
</svg>
