<svg width="41" height="40" viewBox="0 0 41 40" fill="none" xmlns="http://www.w3.org/2000/svg">
    <g clip-path="url(#fm1sx8uzva)">
        <path d="M20.3 0C9.204 0 .207 8.949.207 19.985S9.205 39.97 20.3 39.97c11.095 0 20.092-8.95 20.092-19.985C40.39 8.949 31.394 0 20.3 0zm8.725 27.066c-2.793-2.185-5.742-.9-8.862.457-.628.273-1.275.556-1.903.794a7.599 7.599 0 0 1-2.648.458 9.178 9.178 0 0 1-5.246-1.684l1.135-1.583c1.797 1.277 4.233 1.674 6.067.991.577-.222 1.177-.483 1.813-.758 3.181-1.384 7.141-3.108 10.855-.205l-1.21 1.53zm0-6.384c-2.793-2.185-5.742-.903-8.862.458-.628.271-1.275.555-1.903.793a7.599 7.599 0 0 1-2.648.458 9.178 9.178 0 0 1-5.246-1.684l1.135-1.583c1.797 1.277 4.233 1.674 6.067.991.577-.222 1.177-.483 1.813-.757 3.181-1.386 7.141-3.11 10.855-.206l-1.21 1.53zm0-6.384c-2.793-2.185-5.742-.903-8.862.457-.628.272-1.275.556-1.903.794a7.599 7.599 0 0 1-2.648.458 9.177 9.177 0 0 1-5.246-1.685L11.5 12.74c1.797 1.277 4.233 1.674 6.067.991.577-.222 1.177-.483 1.813-.758 3.181-1.385 7.141-3.108 10.855-.205l-1.21 1.53z" fill="#265CFF"/>
    </g>
    <defs>
        <clipPath id="fm1sx8uzva">
            <path fill="#fff" d="M0 0h41v40H0z"/>
        </clipPath>
    </defs>
</svg>
