<svg width="190" height="57" viewBox="0 0 190 57" fill="none" xmlns="http://www.w3.org/2000/svg">
    <g clip-path="url(#vusvts74ma)" fill-rule="evenodd" clip-rule="evenodd" fill="#151515">
        <path d="M104.73 34.254c0 .358-.031.727-.131 1.053-.408 1.346-1.809 2.485-3.56 2.485-1.461 0-2.621-.824-2.621-2.571 0-2.673 2.953-3.412 6.312-3.394v2.427zm5.272-4.656c0-4.409-1.89-8.285-8.274-8.285-3.28 0-5.882.919-7.3 1.734l1.038 3.542c1.297-.814 3.367-1.49 5.324-1.49 3.239-.009 3.77 1.827 3.77 3.002v.28c-7.061-.012-11.524 2.423-11.524 7.39 0 3.028 2.272 5.868 6.223 5.868 2.431 0 4.463-.966 5.679-2.513h.12s.807 3.361 5.252 2.075c-.233-1.397-.308-2.89-.308-4.686v-6.917zM0 15.312s4.613 18.837 5.349 21.894c.859 3.568 2.409 4.881 6.872 3.995l2.882-11.677c.73-2.903 1.22-4.97 1.689-7.922h.083c.328 2.98.8 5.029 1.4 7.931 0 0 1.171 5.301 1.773 8.084.6 2.786 2.278 4.537 6.65 3.584l6.865-25.89H28.02l-2.344 11.194c-.631 3.258-1.202 5.804-1.642 8.785h-.078c-.401-2.952-.91-5.397-1.552-8.57l-2.44-11.41h-5.773l-2.61 11.122c-.74 3.379-1.432 6.107-1.872 8.986h-.078a317.56 317.56 0 0 0-1.702-9.411S6.38 18.053 5.835 15.31H0zm44.04 18.942c0 .358-.03.727-.13 1.053-.408 1.346-1.81 2.485-3.562 2.485-1.46 0-2.62-.824-2.62-2.571 0-2.673 2.954-3.412 6.312-3.394v2.427zm5.27-4.656c0-4.409-1.888-8.285-8.271-8.285-3.282 0-5.882.919-7.3 1.734l1.036 3.542c1.299-.814 3.366-1.49 5.324-1.49 3.243-.009 3.772 1.827 3.772 3.002v.28c-7.064-.012-11.525 2.423-11.525 7.39 0 3.028 2.273 5.868 6.22 5.868 2.432 0 4.465-.966 5.683-2.513h.12s.806 3.361 5.25 2.075c-.232-1.397-.309-2.89-.309-4.686v-6.917zm8.797 6.107V15.312H52.83v25.89h5.276v-5.497zm69.034-20.393V34.41c0 2.632.498 4.478 1.561 5.605.929.984 2.462 1.623 4.295 1.623 1.56 0 3.095-.294 3.819-.562l-.068-4.108a8.046 8.046 0 0 1-2.004.237c-1.797 0-2.401-1.149-2.401-3.513v-7.305h4.594v-4.954h-4.594V15.31h-5.202z"/>
        <path d="M113.52 21.751v19.45h5.444v-9.958c0-.536.03-1.007.115-1.436.406-2.087 2.006-3.42 4.305-3.42.629 0 1.081.068 1.569.139v-5.092a5.259 5.259 0 0 0-1.198-.121c-2.031 0-4.344 1.308-5.313 4.108h-.148v-3.67h-4.772l41.154-2.511M61.801 21.75v19.45h5.304V29.795c0-.536.062-1.1.251-1.592.438-1.149 1.51-2.49 3.222-2.49 2.14 0 3.142 1.8 3.142 4.402v11.086h5.3V29.658c0-.512.069-1.126.22-1.578.436-1.305 1.59-2.368 3.182-2.368 2.17 0 3.21 1.77 3.21 4.832v10.657h5.303V29.746c0-6.04-3.077-8.433-6.553-8.433-1.539 0-2.753.383-3.851 1.057-.925.564-1.751 1.366-2.473 2.421h-.077c-.84-2.096-2.813-3.478-5.382-3.478-3.3 0-4.783 1.666-5.685 3.082h-.077v-2.642h-5.036"/>
        <path d="m167.493 19.722 1.036-11.672c0-1.154-1.357-2.102-3.063-2.102-1.703 0-3.058.948-3.058 2.102l1.035 11.672c.116.703.978 1.244 2.025 1.244 1.044 0 1.907-.541 2.025-1.244zm-8.43 2.52-9.629-6.73c-1-.576-2.501.12-3.353 1.59-.855 1.472-.704 3.114.296 3.69l10.661 4.947c.668.247 1.573-.228 2.098-1.13l-.004.006c.525-.905.485-1.922-.069-2.373zm14.832 3.497 10.664-4.947c1.003-.576 1.146-2.22.299-3.689-.857-1.474-2.361-2.167-3.359-1.589l-9.628 6.726c-.551.451-.591 1.468-.068 2.373l-.004-.005c.525.903 1.429 1.378 2.096 1.13v.001zm-6.402 11.05 1.036 11.671c0 1.157-1.357 2.102-3.063 2.102-1.703 0-3.058-.945-3.058-2.102l1.035-11.671c.116-.701.978-1.243 2.025-1.243 1.044 0 1.907.54 2.025 1.243zm6.402-6.012 10.664 4.94c1.003.578 1.146 2.222.299 3.694-.857 1.467-2.361 2.163-3.359 1.59l-9.628-6.724c-.551-.458-.591-1.474-.068-2.378.521-.903 1.425-1.372 2.092-1.123v.002zm-14.832 3.5L149.434 41c-1 .575-2.501-.122-3.353-1.589-.855-1.472-.704-3.116.296-3.694l10.661-4.94c.668-.25 1.573.219 2.098 1.124h-.004c.525.902.485 1.918-.069 2.374v.002zm28.933 5.94h.221c.241 0 .451-.073.451-.281 0-.169-.104-.283-.419-.283a1.3 1.3 0 0 0-.251.02l-.002.544zm0 .982h-.324v-1.744c.178-.03.367-.053.608-.053.294 0 .44.053.556.136.106.072.178.21.178.367 0 .218-.157.354-.348.417v.02c.161.063.244.2.296.42.052.269.085.376.125.437h-.336c-.052-.061-.092-.218-.135-.46-.042-.187-.158-.271-.409-.271h-.211v.731zm.296-2.29c-.757 0-1.332.619-1.332 1.371 0 .774.575 1.379 1.351 1.379.757.011 1.313-.605 1.313-1.37 0-.761-.556-1.377-1.323-1.377l-.009-.002zm.019-.29c.946 0 1.689.731 1.689 1.661 0 .952-.745 1.683-1.699 1.683-.955 0-1.71-.731-1.71-1.685 0-.928.755-1.66 1.71-1.66h.01z"/>
    </g>
    <defs>
        <clipPath id="vusvts74ma">
            <path fill="#fff" transform="translate(0 .01)" d="M0 0h190v56H0z"/>
        </clipPath>
    </defs>
</svg>
